<?xml version="1.0" encoding="UTF-8" standalone="no"?>
<!-- Created with Inkscape (http://www.inkscape.org/) -->

<svg
   width="2048"
   height="2048"
   viewBox="0 0 541.86665 541.86668"
   version="1.1"
   id="svg5"
   xmlns="http://www.w3.org/2000/svg"
   xmlns:svg="http://www.w3.org/2000/svg">
  <defs
     id="defs2" />
  <g
     id="layer1"
     style="display:inline" />
  <g
     id="layer2"
     style="display:inline">
    <path
       style="display:inline;fill:#1c3c61;fill-opacity:1;stroke:none;stroke-width:0.264583px;stroke-linecap:butt;stroke-linejoin:miter;stroke-opacity:1"
       d="m 463.34449,523.56304 -1.42887,-18.8205 C 280.20933,464.78467 179.22497,427.69944 109.35638,256.95985 c 47.80637,173.88026 187.02699,219.61136 351.49395,265.96043 0.82579,0.23272 1.66208,0.42882 2.49416,0.64276 z"
       id="path144" />
    <path
       style="display:inline;fill:#1c3c61;fill-opacity:1;stroke:none;stroke-width:0.264583px;stroke-linecap:butt;stroke-linejoin:miter;stroke-opacity:1"
       d="m 311.04689,463.89657 c 24.98004,-16.37109 15.76756,-101.97535 1.88765,-105.97067 -13.95353,14.12961 -21.87653,81.9404 -1.88765,105.97067 z"
       id="path10441" />
    <path
       style="fill:#1c3c61;fill-opacity:1;stroke:none;stroke-width:0.264583px;stroke-linecap:butt;stroke-linejoin:miter;stroke-opacity:1"
       d="m 311.17701,470.39984 c -25.31612,3.06339 -26.00177,54.94336 0.022,61.89395 25.43893,-13.67334 17.34715,-48.72382 -0.022,-61.89395 z"
       id="path13486" />
    <path
       style="fill:#1c3c61;fill-opacity:1;stroke:none;stroke-width:0.264583px;stroke-linecap:butt;stroke-linejoin:miter;stroke-opacity:1"
       d="m 300.30541,466.1305 c -23.10973,36.49865 -88.79805,56.40901 -142.71812,39.74231 27.53762,-22.15888 104.34578,-38.57669 142.71812,-39.74231 z"
       id="path13973" />
    <path
       style="fill:#1c3c61;fill-opacity:1;stroke:none;stroke-width:0.264583px;stroke-linecap:butt;stroke-linejoin:miter;stroke-opacity:1"
       d="m 234.28772,425.88687 c 49.82207,-26.0372 43.89904,-103.73387 31.50312,-121.71761 -28.49135,20.11382 -38.8881,60.80496 -31.50312,121.71761 z"
       id="path14445" />
    <path
       style="fill:#1c3c61;fill-opacity:1;stroke:none;stroke-width:0.264583px;stroke-linecap:butt;stroke-linejoin:miter;stroke-opacity:1"
       d="m 232.76903,431.79293 c 2.00379,23.1377 -8.06603,44.72563 -48.68644,35.31868 0.79053,-38.30161 28.68946,-36.11663 48.68644,-35.31868 z"
       id="path14727" />
    <path
       style="fill:#1c3c61;fill-opacity:1;stroke:none;stroke-width:0.264583px;stroke-linecap:butt;stroke-linejoin:miter;stroke-opacity:1"
       d="m 206.96027,409.60722 c -46.59583,1.53751 -114.934216,17.03168 -132.35832,49.2853 81.09772,2.88378 101.95724,-16.18327 132.35832,-49.2853 z"
       id="path15123" />
    <path
       style="fill:#1c3c61;fill-opacity:1;stroke:none;stroke-width:0.264583px;stroke-linecap:butt;stroke-linejoin:miter;stroke-opacity:1"
       d="m 194.38685,396.35922 c 21.25228,-29.97445 28.14882,-73.3976 14.36366,-109.63996 -25.61672,25.66131 -31.28436,64.01723 -14.36366,109.63996 z"
       id="path15329" />
    <path
       style="display:inline;fill:#1c3c61;fill-opacity:1;stroke:none;stroke-width:0.264583px;stroke-linecap:butt;stroke-linejoin:miter;stroke-opacity:1"
       d="m 153.33697,345.68611 c 20.83091,-19.46513 32.46684,-46.28121 20.33119,-92.01286 -20.51229,21.10161 -32.00194,48.4893 -20.33119,92.01286 z"
       id="path16197-3" />
    <path
       style="display:inline;fill:#1c3c61;fill-opacity:1;stroke:none;stroke-width:0.264583px;stroke-linecap:butt;stroke-linejoin:miter;stroke-opacity:1"
       d="m 167.19446,371.43986 c -35.49467,21.29521 -58.97295,19.26803 -93.771631,8.40156 32.064501,-18.11924 59.635981,-19.55544 93.771631,-8.40156 z"
       id="path15725-7" />
    <path
       style="fill:#1c3c61;fill-opacity:1;stroke:none;stroke-width:0.264583px;stroke-linecap:butt;stroke-linejoin:miter;stroke-opacity:1"
       d="m 136.9712,325.68224 c -25.92879,16.7731 -51.180734,16.25402 -73.812868,6.29819 13.903492,-13.74386 53.961978,-16.34021 73.812868,-6.29819 z"
       id="path16797" />
    <path
       style="fill:#1c3c61;fill-opacity:1;stroke:none;stroke-width:0.264583px;stroke-linecap:butt;stroke-linejoin:miter;stroke-opacity:1"
       d="m 119.17328,282.54049 c 15.25973,-10.96653 32.46519,-27.55736 22.90574,-66.65544 -21.198,9.85366 -23.61746,39.58296 -22.90574,66.65544 z"
       id="path17079" />
    <path
       style="fill:#1c3c61;fill-opacity:1;stroke:none;stroke-width:0.264583px;stroke-linecap:butt;stroke-linejoin:miter;stroke-opacity:1"
       d="m 119.17328,282.54049 c -33.012807,15.02418 -56.648298,14.55316 -66.713218,0.35069 12.020884,-11.05653 35.466611,-12.09928 66.713218,-0.35069 z"
       id="path17567" />
    <path
       style="fill:#1c3c61;fill-opacity:1;stroke:none;stroke-width:0.264583px;stroke-linecap:butt;stroke-linejoin:miter;stroke-opacity:1"
       d="M 119.17328,282.54049 C 84.538745,248.87326 82.466114,235.36742 81.562809,184.12597 c 30.894571,15.45855 39.047201,40.01048 37.610471,98.41452 z"
       id="path17887" />
    <path
       style="display:inline;fill:none;stroke:#1c3c61;stroke-width:14;stroke-linecap:round;stroke-linejoin:miter;stroke-miterlimit:4;stroke-dasharray:none;stroke-opacity:1"
       d="M 479.75667,317.5742 C 370.14415,286.78789 273.66793,242.63532 224.63215,71.676136"
       id="path41397-3" />
    <path
       style="display:inline;fill:none;stroke:#1c3c61;stroke-width:14;stroke-linecap:round;stroke-linejoin:miter;stroke-miterlimit:4;stroke-dasharray:none;stroke-opacity:1"
       d="M 279.91886,268.1362 C 314.45777,158.43905 440.9092,67.357135 481.59129,58.835077"
       id="path41397-3-6" />
    <path
       style="display:inline;fill:none;stroke:#1c3c61;stroke-width:14;stroke-linecap:round;stroke-linejoin:miter;stroke-miterlimit:4;stroke-dasharray:none;stroke-opacity:1"
       d="M 483.35492,179.54674 C 367.36716,140.40456 341.7672,73.629825 327.35777,23.793836"
       id="path41397-3-5" />
    <path
       style="opacity:1;fill:none;stroke:#1c3c61;stroke-width:14;stroke-linecap:round;stroke-linejoin:miter;stroke-miterlimit:4;stroke-dasharray:none;stroke-opacity:1"
       d="m 161.70086,181.00677 c 8.94458,-17.37335 23.60879,-39.196 43.63065,-61.12579 M 263.1558,69.491728 c 12.12881,-8.285505 25.18725,-15.956734 39.14691,-22.672703 M 360.4961,26.390247 c 35.70103,-8.138454 75.5871,-9.533766 119.35557,-0.55529"
       id="path46538" />
  </g>
</svg>
